<svg id="Layer_1" data-name="Layer 1" xmlns="http://www.w3.org/2000/svg" viewBox="0 0 100 100"><title>ilsv-logo-temp</title><g id="fFIbKD.tif"><path d="M100,29.37c-.17.9-.38,1.8-.49,2.71A41.85,41.85,0,0,1,94.38,47.2a108.12,108.12,0,0,1-23.06,29.4,21.64,21.64,0,0,1-4.37,3.16A20.26,20.26,0,0,1,62.52,81c-.84.21-1.7.36-2.56.48-.62.09-1.26.1-2.33.18,4.84-9.34,10.58-17.86,10.14-28.54L68,57.47c2.32-4.22.69-9.63-3.7-12.42a4.83,4.83,0,0,1,4.7.1c1.47.67,3,1.29,4.47,1.9a6.1,6.1,0,0,1,3.39,4.2,15.83,15.83,0,0,1-.2,10c-.82,2.51-2.07,4.87-3.16,7.37,8.14-8.33,15.13-17.4,18.92-28.7.13,1.73-1.34,6.18-3.7,10.48-1.8,3.28-3.83,6.43-5.67,9.7a54.37,54.37,0,0,0,8.61-11.92c3.91-7.34,6.13-15.1,5.52-23.48a14.83,14.83,0,0,0-1.34-4.83,5.09,5.09,0,0,0-5-3.17,6,6,0,0,0-5.49,3.12c-.24.42-.53.82-.94,1.46l-7.34-8.71c1.82-2.34,4.37-3,6.85-3.81a12,12,0,0,1,5,0c.29.08.5.21.66.24,5.14,1,8.11,4.26,9.48,9.15.36,1.28.61,2.59.91,3.89Z"/><path d="M0,70.28c2.38-8.19,7.26-15,12-21.93a53.62,53.62,0,0,0,7.57-14.81l-1,4.41c3.45-3.59,4.11-8.36,1.48-10.7a9.41,9.41,0,0,1,2.19.34,11.65,11.65,0,0,1,7.06,7.7A6.67,6.67,0,0,1,28.49,41c-2,3.26-4.11,6.49-6.29,9.64-2.49,3.59-5.11,7.08-7.68,10.62-.38.52-.71,1.07-1.09,1.58-1.72,2.28-2.68,5-4.4,7.34-3.12,4.28-2.94,7-.67,12.3-2.61-.66-6.08-4-8.35-8Z"/><path d="M53.25,35.5l2.68,1.41c.19-.48.43-1,.63-1.59A30.16,30.16,0,0,1,62,25.42c1.17-1.33,2.28-1.81,3.83-.55,1.81,1.46,3.72,2.79,5.58,4.2,1,.75.94,1.44.11,2.44-3.06,3.67-6.18,7.36-7.77,11.95a50.9,50.9,0,0,0-2.06,9.32V47.51c-2.08,2.82-1.54,9,1.41,14.93-6.19-.39-9.91-7.77-9-18.23a4.69,4.69,0,0,0-.45,1.06c-.24,3.28-2.08,5.72-3.92,8.31A66.62,66.62,0,0,0,45,62.32,14.6,14.6,0,0,0,44.31,65a14.71,14.71,0,0,0,6.77-3.17,3.15,3.15,0,0,1,3.69-.36,19.71,19.71,0,0,1,3.42,2,4.43,4.43,0,0,1,1.44,5.34A40.2,40.2,0,0,1,48.76,85.14c-.39.35-.81.66-1.23,1C40.85,91,34.66,89.84,30.15,82.86a6.48,6.48,0,0,1-.67-6.43,69,69,0,0,0,2.92-9.17l.32,1.94a3.9,3.9,0,0,0,.51-4.71l.35-.45a63.2,63.2,0,0,1,6.83,3.16c2.19,1.33,2.65,3.38,1.34,5.61a52.83,52.83,0,0,1-4,5.26c-1,1.33-2.16,2.6-3.08,4A2.49,2.49,0,0,0,35,85.43a2.56,2.56,0,0,0,3.5.31,9.92,9.92,0,0,0,2.54-2.44l-1.64.64c6.2-5.85,9.92-12.88,13.54-20.53a12,12,0,0,0-2.42.73,28.46,28.46,0,0,0-4.51,3c-1.25,1.1-2.15.91-3.3,0a8.54,8.54,0,0,1-3.38-8.95,25.88,25.88,0,0,1,4.78-10c2.47-3.46,5.17-6.75,7.73-10.14A21,21,0,0,0,53.25,35.5Z"/><path d="M38.45,31.54l-.73,2.23c1.8-1.77,4.94-7.83,5.22-9.95a3,3,0,0,0-1.8-3.43l.14-.41a10.94,10.94,0,0,1,2.36.43A11.54,11.54,0,0,1,50,26.59,7.66,7.66,0,0,1,49.65,34c-2.67,4.43-5.3,8.9-8.21,13.17C35.7,55.56,29.75,63.82,24,72.21A34.62,34.62,0,0,0,18.6,84.83l.46-4.06c-2.14,3.45-2.1,6.81-.12,10.49a9.67,9.67,0,0,1-1.2-.48c-.45-.27-.87-.58-1.29-.89C10.26,85.32,9.31,82.12,12.29,75c3.25-7.71,8-14.6,12.58-21.52C29.65,46.36,34.75,39.4,38.45,31.54Z"/><path d="M5.25,52.52l-2,1.74-2-1.72,1.94-1.73Z"/><path d="M97.76,52.52l-2,1.75-2-1.72,1.95-1.74Z"/></g></svg>