<svg id="Layer_1" data-name="Layer 1" xmlns="http://www.w3.org/2000/svg" viewBox="0 0 53 30.18"><defs><style>.cls-1{fill:#909090;}.cls-1:hover{fill:#fff;}.cls-1:focus{fill:#fff;}</style></defs><title>miller-ad-agency-icon</title><path class="cls-1" d="M14.92,7.93l-4,11a23.82,23.82,0,0,0-1.46,6.47c0,2.79,1.84,3.36,4.19,3.36.44,0,1.14.06,1.14.63s-.76.76-1.27.76H1.08C.57,30.15,0,30,0,29.39s.83-.76,1.33-.76c5.08-.19,8.57-10.47,10-14.28l2.73-7.43C12.76,5.2,11,5.84,11,5.08c0-.32.57-.44.76-.51C15.49,3.81,17.52,0,18.28,0s1.46,2.54,1.65,2.92l6.86,17.26L31.86,6.86C30,5.46,29,6,29,5.33c0-.32.44-.38.7-.44C33.89,3.55,34.91,0,35.8,0c.51,0,.76.76.89,1.27l5.08,12.5c6.22,15.49,6.86,14.79,10,15,.51,0,1.21.19,1.21.89,0,.51-.83.51-1.21.51H37.26c-.51,0-1.4,0-1.4-.7s.38-.7.89-.7c1.33-.13,3.11-.44,3.11-2.09a14.24,14.24,0,0,0-1.33-4.32L32.69,7.93,27.55,22.15c1.21,2.35,2.22,6.22,5.4,6.6.44,0,.89.19.89.7,0,1-1.84.7-2.29.7H19.17c-.57,0-2.35.19-2.35-.76,0-.7,1-.76,1.59-.76C20,28.56,22,28.44,22,26.34c0-1.46-1-3.68-1.59-5.08Z"/></svg>
